<svg width="1440" height="354" viewBox="0 0 1440 354" fill="none" xmlns="http://www.w3.org/2000/svg">
<g filter="url(#filter0_d_1_69)">
<path d="M1959.04 78.5409C2059.32 232.547 1522.28 326.237 811.425 288.422C176.769 344.902 -344.819 329.012 -348.057 292.625C-351.295 256.239 155.086 101.255 789.743 44.7755C1424.4 -11.7044 1955.8 42.1542 1959.04 78.5409Z" fill="#F6F1EB"/>
<path d="M788.856 34.8149C1106.67 6.53123 1398.66 5.87059 1611.69 16.8463C1718.18 22.3329 1805.1 30.7353 1865.74 40.0885C1896.01 44.7562 1920.04 49.7081 1936.78 54.7515C1945.09 57.2543 1952.09 59.9214 1957.25 62.8319C1959.83 64.2833 1962.37 66.0232 1964.42 68.1593C1965.92 69.7241 1967.5 71.869 1968.37 74.579C1981.48 95.4426 1984.67 116.545 1977.04 136.845C1969.46 156.998 1951.85 174.626 1927.33 190.083C1878.27 221.006 1796.74 246.235 1691.18 265.256C1479.71 303.364 1167.17 317.319 811.603 298.445C494.258 326.663 205.151 336.811 -5.16687 335.349C-110.372 334.618 -196.039 330.98 -255.731 325.215C-285.515 322.339 -309.182 318.901 -325.677 314.93C-333.853 312.962 -340.81 310.739 -345.989 308.118C-348.573 306.811 -351.176 305.177 -353.299 303.065C-355.378 300.997 -357.503 297.943 -357.976 293.906L-358.017 293.512L-358.047 293.125C-358.291 289.146 -356.804 285.801 -355.272 283.436C-353.671 280.966 -351.526 278.781 -349.279 276.862C-344.776 273.016 -338.448 269.057 -330.81 265.009C-315.421 256.854 -292.917 247.408 -264.282 237.083C-206.906 216.395 -123.715 191.75 -20.7471 166.523C185.233 116.056 470.992 63.1026 788.856 34.8149Z" stroke="white" stroke-width="20" stroke-linecap="round"/>
</g>
<defs>
<filter id="filter0_d_1_69" x="-372.074" y="0.250854" width="2367.19" height="353.234" filterUnits="userSpaceOnUse" color-interpolation-filters="sRGB">
<feFlood flood-opacity="0" result="BackgroundImageFix"/>
<feColorMatrix in="SourceAlpha" type="matrix" values="0 0 0 0 0 0 0 0 0 0 0 0 0 0 0 0 0 0 127 0" result="hardAlpha"/>
<feOffset dy="4"/>
<feGaussianBlur stdDeviation="2"/>
<feComposite in2="hardAlpha" operator="out"/>
<feColorMatrix type="matrix" values="0 0 0 0 0 0 0 0 0 0 0 0 0 0 0 0 0 0 0.25 0"/>
<feBlend mode="normal" in2="BackgroundImageFix" result="effect1_dropShadow_1_69"/>
<feBlend mode="normal" in="SourceGraphic" in2="effect1_dropShadow_1_69" result="shape"/>
</filter>
</defs>
</svg>
